<svg xmlns="http://www.w3.org/2000/svg" width="20" height="20" fill="none" viewBox="0 0 20 20">
    <g clip-path="url(#a)">
        <path fill="#AA6100"
            d="M18.917 4.07c-.51-.411-1.193-.458-1.774-.157L17.4 1.34a.467.467 0 0 1 .249-.37 3.06 3.06 0 0 0 .709-.537.472.472 0 0 1 .804.33c.009.909-.03 2.173-.245 3.307Z">
        </path>
        <path fill="#884D00"
            d="M18.358.432a3.06 3.06 0 0 1-.71.538.467.467 0 0 0-.248.37l-.257 2.573c.324-.168.68-.228 1.02-.177l.145-2.903c.007-.152.032-.296.072-.421l-.022.02Z">
        </path>
        <path fill="#DDB200"
            d="M16.68 9.936c-2.573 2.656-7.861 5.098-15.15 2.198-1.503-.598-1.637-2.76-.277-2.822 2.788-.127 8.402 1.102 15.495-5.391.615-.562 1.63-.566 2.251-.012l.05.046c.474.457.609 1.163.371 1.776-.289.745-1.089 2.501-2.74 4.205Z">
        </path>
        <path fill="#CCA400"
            d="M19.42 5.731c-.064.165-.153.38-.271.633a1.574 1.574 0 0 0-.307-.37c-.622-.555-1.637-.55-2.251.012-7.094 6.493-12.707 5.264-15.495 5.392-.153.007-.288.04-.403.095-.645-.864-.477-2.133.56-2.18 2.788-.127 8.401 1.101 15.495-5.392.615-.562 1.63-.566 2.25-.012a1.643 1.643 0 0 1 .42 1.822Z">
        </path>
        <path fill="#FFCD00"
            d="M18.174 9.824c-1.627 3.322-5.902 7.278-13.73 6.772a1.927 1.927 0 0 1-1.69-1.26c0-.004-.404-.979.554-1.339 2.613-.982 8.336-1.176 13.077-9.543.864-1.525 3.053-1.022 3.095.525.022.798-.263 2.715-1.306 4.845Z">
        </path>
        <path fill="#EEBF00"
            d="M16.385 4.454c-4.741 8.367-10.464 8.561-13.077 9.543-.958.36-.553 1.335-.553 1.339a1.926 1.926 0 0 0 1.66 1.257 1.681 1.681 0 0 1-.048-.117c0-.004-.405-.978.554-1.338 2.612-.982 8.336-1.176 13.076-9.543.345-.608.9-.894 1.445-.92-.298-1.303-2.252-1.642-3.057-.22Z">
        </path>
        <path fill="#FFE477"
            d="M19.388 9.853c-.796 3.612-4.017 8.466-11.742 9.822a1.927 1.927 0 0 1-1.94-.826l-.098-.148a.995.995 0 0 1 .32-1.283c2.307-1.57 7.73-3.471 10.361-12.72.228-.802 1.09-1.338 1.91-1.192l.067.013c.643.141 1.128.67 1.248 1.317.144.786.385 2.7-.126 5.017Z">
        </path>
        <path fill="#FFD422"
            d="M19.356 4.376c-.67.067-1.288.547-1.476 1.207-2.63 9.25-8.054 11.15-10.36 12.72a.995.995 0 0 0-.322 1.284l.08.117a1.927 1.927 0 0 1-1.573-.855l-.1-.147a.994.994 0 0 1 .322-1.283c2.306-1.572 7.73-3.472 10.36-12.721.229-.802 1.09-1.337 1.91-1.192l.067.014c.482.105.875.428 1.092.856Z">
        </path>
        <path fill="#000"
            d="M19.656 4.316a1.96 1.96 0 0 0-.385-.561c.16-1.024.195-2.116.186-2.995a.767.767 0 0 0-1.305-.538c-.279.272-.501.415-.639.486a.761.761 0 0 0-.406.603l-.215 2.144c-.656.384-3.897 3.97-9.1 5.161a.295.295 0 0 0 .132.576c2.439-.559 4.762-1.679 7.05-3.405-3.255 4.778-6.822 6.341-9.387 7.178A18.475 18.475 0 0 1 1.64 11.86C.528 11.416.607 10.262.602 10.243a.7.7 0 0 1 .665-.636c1.251-.057 3.13.168 5.477-.191a.295.295 0 1 0-.09-.583c-2.29.35-4.136.126-5.414.185-.705.032-1.228.632-1.228 1.23.015.063-.088 1.14.898 1.875.157.117.329.213.512.286a19.72 19.72 0 0 0 2.965.926c-1.07.324-1.334.42-1.554.586a.295.295 0 0 0 .355.471c1.11-.832 7.301-.8 12.415-8.483-1.116 3.304-2.834 6.221-5.54 8.442a.295.295 0 0 0 .375.456c5.109-4.194 5.845-9.983 6.488-10.61.707-.694 1.817-.455 2.19.357v-.001c.241.516.506 2.86-.017 5.237-.408 1.848-2.442 8.004-11.506 9.594a1.628 1.628 0 0 1-1.643-.699c-.024-.05-.162-.172-.162-.444a.7.7 0 0 1 .305-.579c.828-.563 2.016-1.145 3.392-2.127a.295.295 0 0 0-.343-.48 25.75 25.75 0 0 1-1.933 1.237c-.915.07-1.846.068-2.747.01-.724-.046-1.302-.566-1.46-1.156a.295.295 0 0 0-.569.155c.228.831 1.004 1.526 1.991 1.589.597.039 1.16.051 1.713.042-.132.081-.257.162-.376.243-.353.24-.563.639-.563 1.066 0 .854 1.093 1.97 2.497 1.725 6.953-1.22 10.97-5.47 11.98-10.05.57-2.58.235-5.263-.019-5.6ZM17.508 3.23c.217-1.89.13-1.922.277-1.999.174-.09.45-.265.78-.588a.177.177 0 0 1 .302.122c.016 1.565-.134 2.553-.138 2.602a1.908 1.908 0 0 0-1.221-.137Z">
        </path>
    </g>
    <defs>
        <clipPath id="a">
            <path fill="#fff" d="M0 0h20v20H0z"></path>
        </clipPath>
    </defs>
</svg>