<svg xmlns="http://www.w3.org/2000/svg" width="20" height="20" fill="none" viewBox="0 0 96 96">
    <g clip-path="url(#a)">
        <path fill="#CBE558"
            d="M67.46 80.96c16.158-4.331 28.105-12.136 26.685-17.432-1.42-5.296-15.67-6.077-31.827-1.745-16.157 4.332-28.104 12.137-26.685 17.433 1.42 5.296 15.67 6.077 31.827 1.745Z">
        </path>
        <path fill="#CBE558"
            d="M77.592 52.741c11.826-11.825 18.27-24.553 14.394-28.43-3.876-3.875-16.604 2.569-28.43 14.394-11.825 11.826-18.27 24.554-14.393 28.43 3.875 3.876 16.604-2.568 28.43-14.394Z">
        </path>
        <path fill="#B8866B"
            d="M35.622 82.716c18.64 0 33.752-15.112 33.752-33.753 0-18.64-15.111-33.752-33.752-33.752-18.641 0-33.753 15.111-33.753 33.752 0 18.641 15.112 33.753 33.753 33.753Z">
        </path>
        <path fill="#fff"
            d="M58.788 74.56c12.555-7.25 15.178-26.213 5.857-42.356-9.32-16.143-27.054-23.353-39.61-16.103-12.556 7.249-15.178 26.212-5.858 42.355C28.497 74.6 46.232 81.81 58.787 74.56Z">
        </path>
        <path fill="#E8E7E9"
            d="M29.9 24.525c-3.683 2.126-6.106 6.148-6.822 11.325-.804 5.817.606 12.232 3.973 18.062 3.366 5.83 8.215 10.26 13.656 12.471 4.841 1.968 9.536 1.882 13.218-.245 3.683-2.126 6.106-6.148 6.822-11.325.804-5.817-.606-12.232-3.973-18.062-3.366-5.83-8.215-10.26-13.656-12.471-4.841-1.969-9.536-1.882-13.218.245Z">
        </path>
        <path fill="#000"
            d="M95.936 63.055a1.876 1.876 0 0 0-1.129-1.262 53.09 53.09 0 0 0-20.494-3.613 53.642 53.642 0 0 0 4.619-4.114c8.052-8.053 13.213-18.246 14.923-29.478a1.875 1.875 0 0 0-2.136-2.136 52.845 52.845 0 0 0-24.506 10.535 46.29 46.29 0 0 0-.943-1.72c-4.715-8.166-11.644-14.425-19.51-17.623-8.029-3.265-16.077-2.969-22.662.833l-6.291 3.632C.794 27.932-5.056 49.764 4.767 66.777c4.757 8.242 12.44 14.137 21.632 16.6a35.82 35.82 0 0 0 9.28 1.23c2.809 0 5.6-.34 8.327-1.004a52.685 52.685 0 0 0 10.186 1.002c4.597 0 9.19-.61 13.734-1.827 11-2.948 20.566-9.195 27.663-18.067.373-.465.502-1.08.347-1.656Zm-6.255-36.427c-1.945 9.406-6.545 17.93-13.401 24.786a49.873 49.873 0 0 1-4.31 3.837c.537-6.155-.55-12.626-3.12-18.777a49.078 49.078 0 0 1 20.83-9.846ZM35.819 15.15c3.08 0 6.299.655 9.529 1.968 7.097 2.886 13.374 8.577 17.674 16.025 4.3 7.449 6.09 15.73 5.041 23.32-1.025 7.412-4.651 13.263-10.21 16.473l-.006.004c-11.64 6.717-28.259-.199-37.047-15.42-8.788-15.223-6.468-33.075 5.173-39.795 2.97-1.715 6.316-2.575 9.846-2.575ZM27.37 79.755c-8.225-2.204-15.099-7.479-19.356-14.853-7.713-13.36-4.624-30.04 6.537-39.863-1.223 2.606-2.072 5.509-2.506 8.648-1.164 8.41.793 17.54 5.508 25.708 4.715 8.167 11.644 14.426 19.51 17.624 2.942 1.196 5.886 1.913 8.76 2.156-5.912 2.01-12.285 2.232-18.453.58Zm39.586-.6c-5.067 1.358-10.195 1.901-15.319 1.63a36.497 36.497 0 0 0 1.797-.967l6.288-3.63.003-.002.003-.002 1.091-.63c.152-.088.286-.195.403-.314 4.422-3.033 7.649-7.54 9.396-13.074a49.277 49.277 0 0 1 20.335 2.225c-6.387 7.173-14.632 12.255-23.997 14.764Z">
        </path>
        <path fill="#000"
            d="M25.426 54.85C29 61.04 34.176 65.752 40 68.12c2.553 1.039 5.08 1.556 7.48 1.556 2.667 0 5.175-.639 7.383-1.913 4.194-2.422 6.944-6.93 7.74-12.693.862-6.228-.632-13.067-4.205-19.256-1.889-3.271-4.208-6.121-6.892-8.47a1.875 1.875 0 1 0-2.47 2.821c2.374 2.078 4.431 4.61 6.114 7.524 3.159 5.47 4.487 11.461 3.739 16.867-.636 4.591-2.731 8.128-5.902 9.958-3.17 1.83-7.281 1.878-11.575.132-5.056-2.056-9.58-6.2-12.738-11.671-3.159-5.471-4.487-11.462-3.739-16.868.635-4.591 2.73-8.128 5.902-9.958 1.252-.723 2.657-1.174 4.174-1.338a1.875 1.875 0 1 0-.404-3.729c-2.04.222-3.939.833-5.645 1.819-4.195 2.422-6.945 6.93-7.742 12.692-.861 6.228.633 13.067 4.206 19.257Z">
        </path>
        <path fill="#000"
            d="M43.117 26.154c.494 0 .977-.2 1.326-.548.35-.35.55-.832.55-1.328 0-.493-.2-.976-.55-1.325a1.887 1.887 0 0 0-1.326-.548c-.493 0-.977.199-1.325.548-.35.349-.55.832-.55 1.326 0 .495.2.977.55 1.327.348.349.832.548 1.325.548Z">
        </path>
    </g>
    <defs>
        <clipPath id="a">
            <path fill="#fff" d="M0 0h96v96H0z"></path>
        </clipPath>
    </defs>
</svg>