<svg xmlns="http://www.w3.org/2000/svg" width="16" height="16" fill="none" viewBox="0 0 16 16">
    <path fill="#7388D9" fill-rule="evenodd"
        d="m9.28 14.72-.32-1.6a5.948 5.948 0 0 0 3.84-1.6l-.118.039c-.538.181-2.735.921-4.682.921-1.947 0-4.144-.74-4.682-.921L3.2 11.52a5.949 5.949 0 0 0 3.84 1.6l-.32 1.6a17.84 17.84 0 0 1-5.152-.99A1.91 1.91 0 0 1 .322 11.86c.14-2.745.582-5.466 1.316-8.115A1.92 1.92 0 0 1 2.96 2.408a17.64 17.64 0 0 1 4.08-.488 7.42 7.42 0 0 0-3.52 1.92c.016-.004.062-.021.134-.048.524-.197 2.432-.914 4.346-.912a13.78 13.78 0 0 1 4.49.951 7.388 7.388 0 0 0-3.53-1.91 17.64 17.64 0 0 1 4.08.485 1.92 1.92 0 0 1 1.322 1.337 37.586 37.586 0 0 1 1.316 8.116 1.912 1.912 0 0 1-1.246 1.871c-1.66.582-3.395.916-5.152.99ZM4.8 10.24a1.6 1.6 0 1 0 0-3.2 1.6 1.6 0 0 0 0 3.2Zm8-1.6a1.6 1.6 0 1 1-3.2 0 1.6 1.6 0 0 1 3.2 0Z"
        clip-rule="evenodd"></path>
    <path fill="#5061A6"
        d="M11.59 3.082a24.462 24.462 0 0 0-2.63-.202c.086.018.253.056.475.122 1.045.165 2.07.443 3.055.83a6.706 6.706 0 0 0-.9-.75ZM6.599 2.994c.204-.06.36-.096.44-.114-.87.02-1.74.086-2.604.198a6.805 6.805 0 0 0-.915.762c.994-.386 2.026-.67 3.079-.846Z">
    </path>
    <path fill="#000"
        d="m1.598 5.194-.623-.147c-.048.204-.097.419-.147.645l.626.136c.048-.221.096-.434.144-.634ZM1.948 3.829a1.588 1.588 0 0 1 1.1-1.115 11.92 11.92 0 0 1 1.913-.338 7.371 7.371 0 0 0-1.667 1.238.32.32 0 0 0 .308.536 2.37 2.37 0 0 0 .165-.059 12.256 12.256 0 0 1 4.225-.89h.01c1.484.063 2.947.37 4.332.909a.322.322 0 0 0 .476-.235.32.32 0 0 0-.027-.178.288.288 0 0 0-.07-.088l.004-.004a7.285 7.285 0 0 0-1.648-1.226c.636.06 1.267.173 1.885.335a1.587 1.587 0 0 1 1.1 1.115 37.904 37.904 0 0 1 1.222 6.758l.638-.054a38.592 38.592 0 0 0-1.243-6.876 2.223 2.223 0 0 0-1.543-1.559A17.584 17.584 0 0 0 8.97 1.6a.326.326 0 0 0-.326.283.32.32 0 0 0 .252.35 7.107 7.107 0 0 1 1.869.711A15.92 15.92 0 0 0 8 2.56h-.009c-.927.012-1.848.142-2.743.386a6.985 6.985 0 0 1 1.856-.713.32.32 0 0 0-.073-.633c-1.4 0-2.797.167-4.158.498a2.222 2.222 0 0 0-1.542 1.559c-.06.214-.128.463-.2.744l.621.16c.07-.278.136-.522.195-.732ZM1.457 14.03c1.688.596 3.456.936 5.245 1.01a.317.317 0 0 0 .332-.256l.32-1.6a.32.32 0 0 0-.314-.384 5.815 5.815 0 0 1-1.723-.34c.879.211 1.779.326 2.683.34a12.286 12.286 0 0 0 2.683-.34c-.554.2-1.135.314-1.723.34a.32.32 0 0 0-.314.384l.32 1.6a.32.32 0 0 0 .314.256h.018a18.043 18.043 0 0 0 5.245-1.01 2.222 2.222 0 0 0 1.455-2.184c-.01-.224-.022-.446-.037-.666l-.64.041c.014.216.026.433.036.652a1.583 1.583 0 0 1-1.037 1.558c-1.54.543-3.15.864-4.78.953l-.193-.967a6.164 6.164 0 0 0 3.68-1.67.32.32 0 0 0-.307-.536c-.017.004-.064.02-.139.044-2.22.748-3.717.905-4.581.905-.864 0-2.362-.157-4.58-.905a2.778 2.778 0 0 0-.139-.044.32.32 0 0 0-.307.536 6.163 6.163 0 0 0 3.68 1.67l-.192.966a17.16 17.16 0 0 1-4.783-.952 1.584 1.584 0 0 1-1.037-1.559c.087-1.817.313-3.625.677-5.408l-.627-.128a36.19 36.19 0 0 0-.69 5.509 2.222 2.222 0 0 0 1.455 2.186Z">
    </path>
    <path fill="#000"
        d="M2.879 8.64a1.92 1.92 0 1 0 3.84 0 1.92 1.92 0 0 0-3.84 0Zm3.2 0a1.28 1.28 0 1 1-2.56 0 1.28 1.28 0 0 1 2.56 0ZM11.201 6.72a1.92 1.92 0 1 0 0 3.84 1.92 1.92 0 0 0 0-3.84Zm0 3.2a1.28 1.28 0 1 1 0-2.56 1.28 1.28 0 0 1 0 2.56Z">
    </path>
</svg>