<svg xmlns="http://www.w3.org/2000/svg" width="20" height="20" fill="none" viewBox="0 0 48 48">
    <g clip-path="url(#a)">
        <path fill="#fff"
            d="M.938 14.344v23.86l8.859 8.858h24.515c1.036 0 1.876-.839 1.876-1.874V2.812c0-1.035-.84-1.874-1.876-1.874h-31.5C1.778.938.938 1.776.938 2.813v11.53Z">
        </path>
        <path fill="#FFE6C0" d="m.938 38.195 8.859 8.86V40.07c0-1.035-.84-1.875-1.875-1.875H.938Z"></path>
        <path fill="#FFCB7C" d="m27.305 35.528 5.846 3.375L46.608 15.59a3.375 3.375 0 1 0-5.846-3.375L27.305 35.528Z">
        </path>
        <path fill="#F5737F" d="m39.172 14.972 1.591-2.756a3.375 3.375 0 0 1 5.846 3.375l-1.591 2.756-5.846-3.375Z">
        </path>
        <path fill="#98A1B3" d="m27.303 35.528-.592 7.777 6.438-4.402-5.846-3.375Z"></path>
        <path fill="#000"
            d="M45.843 10.17a4.282 4.282 0 0 0-3.272-.431 4.285 4.285 0 0 0-2.619 2.009l-2.827 4.897V2.813A2.816 2.816 0 0 0 34.312 0h-31.5A2.816 2.816 0 0 0 0 2.813v35.39c0 .249.099.487.275.663l8.859 8.86a.937.937 0 0 0 .663.274h9.063a.937.937 0 1 0 0-1.875h-8.126V40.07a2.816 2.816 0 0 0-2.812-2.812H1.875V2.812c0-.517.42-.937.938-.937h31.5c.517 0 .937.42.937.938v17.08L28.866 30.95a.956.956 0 0 0-.178-.018H8.438a.938.938 0 0 0 0 1.875h19.356l-1.3 2.252a.941.941 0 0 0-.123.398l-.593 7.776a.938.938 0 0 0 1.464.846l6.438-4.402a.943.943 0 0 0 .283-.305l1.287-2.23v8.045c0 .518-.42.938-.938.938h-7.015a.937.937 0 1 0 0 1.875h7.015a2.816 2.816 0 0 0 2.813-2.813V33.895L47.422 16.06a4.317 4.317 0 0 0-1.579-5.89ZM7.922 39.133c.517 0 .937.42.937.937v4.721l-5.658-5.658h4.72Zm20.205-2.048 3.265 1.885-3.596 2.458.331-4.343Zm4.681.537-4.222-2.437L39.518 16.25l4.222 2.437-10.932 18.934Zm12.99-22.499-1.12 1.941-4.223-2.438 1.12-1.94a2.44 2.44 0 0 1 3.33-.893 2.44 2.44 0 0 1 .893 3.33Z">
        </path>
        <path fill="#000"
            d="M22.545 37.12a.937.937 0 0 0-.938-.938H13.47a.937.937 0 1 0 0 1.875h8.138c.518 0 .938-.42.938-.938ZM28.688 25.68H14.34a.937.937 0 1 0 0 1.876h14.348a.937.937 0 1 0 0-1.875ZM8.438 22.307h20.25a.937.937 0 1 0 0-1.875H8.438a.937.937 0 1 0 0 1.875ZM28.688 9.928H8.438a.937.937 0 1 0 0 1.875h20.25a.937.937 0 1 0 0-1.875ZM28.69 15.18h-7.08a.938.938 0 0 0 0 1.875h7.08a.937.937 0 1 0 0-1.875ZM8.438 17.055h8.327a.937.937 0 1 0 0-1.875H8.438a.937.937 0 1 0 0 1.875ZM8.438 27.556h1.536a.937.937 0 1 0 0-1.875H8.437a.937.937 0 1 0 0 1.875ZM23.078 46.125a.94.94 0 0 0-.663 1.6.943.943 0 0 0 .663.275c.247 0 .489-.1.663-.275a.945.945 0 0 0 .275-.663c0-.246-.1-.488-.275-.662a.945.945 0 0 0-.663-.275Z">
        </path>
    </g>
    <defs>
        <clipPath id="a">
            <path fill="#fff" d="M0 0h48v48H0z"></path>
        </clipPath>
    </defs>
</svg>