<svg xmlns="http://www.w3.org/2000/svg" width="16" height="16" fill="none" viewBox="0 0 16 16">
    <path fill="#141414" fill-rule="evenodd"
        d="M2.56 10.105a5.58 5.58 0 0 0 1.43 2.054c1.186 1.074 2.744 1.542 4.26 1.412l-.331 2.17a7.716 7.716 0 0 1-6.967-4.028c-1.6-2.929-1.184-6.677 1.254-9.177L.728 1.056C.648.974.706.828.826.808L6.098.001a.131.131 0 0 1 .149.15l-.805 5.282c-.02.12-.166.178-.247.097L3.721 4.053c-1.597 1.65-1.98 4.041-1.162 6.052Zm12.487-5.818c1.6 2.929 1.185 6.677-1.253 9.177l1.477 1.48c.078.081.023.228-.097.247l-5.272.807a.131.131 0 0 1-.149-.15l.805-5.28c.02-.12.166-.18.247-.098l1.473 1.477a5.646 5.646 0 0 0 1.163-6.052 5.578 5.578 0 0 0-1.432-2.054C10.824 2.767 9.263 2.3 7.75 2.43l.331-2.17a7.716 7.716 0 0 1 6.966 4.028Z"
        clip-rule="evenodd"></path>
</svg>